<svg version="1.1" xmlns="http://www.w3.org/2000/svg" id="Layer_1" data-name="Layer 1" width="200" height="200" viewBox="0 0 800 800">
  <defs>
    <style>
      .cls-1{fill:#f5fbef}.cls-2{fill:#4ea699}
    </style>
  </defs>
  <path d="M0 0h800v800H0z" style="fill:#004346"/>
  <path d="m588.42 502.76 33.81 50.62-4.63 3.22c-3.32-3.1-6.05-4.64-8.18-4.64s-8.13 2.85-17.97 8.56c-20.4 11.77-37.57 19.7-51.51 23.81-13.94 4.11-30.51 6.15-49.73 6.15-38.31 0-69.75-9.07-94.3-27.22-14.47-10.56-25.86-23.66-34.16-39.32-9.61-17.91-14.41-37.66-14.41-59.25 0-29.42 8.6-54.98 25.8-76.68 25.86-32.62 64.94-48.93 117.25-48.93 19.22 0 35.7 2.02 49.46 6.05 13.76 4.03 30.96 11.98 51.6 23.84 9.85 5.57 15.84 8.36 17.97 8.36s4.86-1.54 8.18-4.63l4.63 3.2-33.81 50.71-4.8-3.19c.24-1.9.36-3.48.36-4.79 0-3.42-1.48-6.64-4.45-9.65-2.97-3.02-8.24-6.66-15.84-10.91-20.99-11.82-43.24-17.72-66.72-17.72-27.76 0-49.88 6.94-66.36 20.79-19.45 16.25-29.18 37.45-29.18 63.64s9.73 47.4 29.18 63.64c16.49 13.86 38.61 20.79 66.36 20.79 23.49 0 45.73-5.93 66.72-17.79 7.59-4.27 12.87-7.92 15.84-10.94 2.97-3.02 4.45-6.26 4.45-9.7 0-1.3-.12-2.85-.36-4.63l4.8-3.38Z" class="cls-2"/>
  <path d="M156.72 739.19v-51.74c0-1.58-.24-2.71-.72-3.39s-1.48-1.21-2.98-1.59v-1.56h32.75c8.76 0 15.28 1.02 19.56 3.07 5.32 2.58 9.49 6.86 12.5 12.85 2.63 5.17 3.94 10.67 3.94 16.49 0 6.83-1.74 13.1-5.21 18.81-3.01 4.98-6.82 8.49-11.43 10.53s-11.06 3.07-19.36 3.07h-32.75v-1.56c1.5-.38 2.5-.92 2.98-1.59s.72-1.8.72-3.39Zm8.28.23h20.31c7.68 0 13.29-1.04 16.84-3.12 3.94-2.28 6.86-5.87 8.8-10.76 1.43-3.7 2.14-7.78 2.14-12.21 0-7.91-2.03-14.24-6.08-18.98-2.24-2.58-5.01-4.42-8.3-5.5-3.3-1.08-7.76-1.62-13.4-1.62H165v52.2ZM246.07 715.41v24.02h40.05c1.62 0 2.77-.25 3.44-.74.67-.5 1.19-1.48 1.53-2.97h1.62v13.72h-1.62c-.35-1.47-.85-2.45-1.5-2.95s-1.79-.75-3.41-.75H234.1v-1.56c1.5-.38 2.5-.92 2.98-1.59s.72-1.8.72-3.39v-51.74c0-1.62-.25-2.76-.75-3.41s-1.48-1.18-2.95-1.56v-1.56h51.68c1.62 0 2.76-.25 3.41-.75s1.18-1.48 1.56-2.95h1.56v13.72h-1.56c-.38-1.48-.9-2.47-1.56-2.97-.66-.49-1.79-.74-3.41-.74h-39.7v21.87h25.29c1.62 0 2.76-.25 3.41-.75s1.18-1.48 1.56-2.95h1.56v13.72h-1.56c-.38-1.48-.92-2.47-1.59-2.97-.67-.49-1.8-.74-3.39-.74h-25.29ZM366.38 684.27l-6.37 12.62-1.39-.69c.2-1.12.29-1.89.29-2.31 0-.93-1.25-2.05-3.76-3.36-5.32-2.86-11.81-4.28-19.44-4.28-6.13 0-11.34 1.14-15.62 3.41-4.28 2.31-6.42 5.53-6.42 9.66 0 1.85.54 3.52 1.62 5.01 1.08 1.48 2.52 2.54 4.34 3.15s3.78 1.02 5.9 1.22c2.12.2 6.68.43 13.66.69 5.82.2 10.24.56 13.22 1.1 2.99.54 5.55 1.41 7.67 2.6 2.28 1.27 4.07 3.12 5.38 5.53s1.97 5.04 1.97 7.9c0 5.98-2.45 10.74-7.35 14.29-5.87 4.2-13.66 6.31-23.38 6.31-4.78 0-9.81-.73-15.08-2.2s-10.16-3.47-14.67-6.02c-.61-.38-1.08-.58-1.39-.58-.58 0-1.45.67-2.6 2.03l-1.33-.87 7.35-12.33 1.39.81c-.12.46-.2.77-.23.93-.2.61-.29 1.12-.29 1.5 0 1.08 1.97 2.66 5.9 4.75 6.63 3.51 13.52 5.27 20.66 5.27 6.52 0 11.94-1.12 16.26-3.36 2.08-1.08 3.74-2.54 4.98-4.37s1.85-3.75 1.85-5.76c0-1.85-.52-3.51-1.56-4.98s-2.41-2.51-4.11-3.12c-1.58-.54-3.35-.93-5.3-1.16-1.95-.23-5.62-.44-11.02-.64-6.37-.27-10.92-.59-13.66-.95-2.74-.37-5.32-.99-7.75-1.88-3.09-1.12-5.58-2.93-7.47-5.44-1.89-2.58-2.84-5.64-2.84-9.14 0-6.21 2.81-11.09 8.45-14.64 5.75-3.62 13.06-5.44 21.93-5.44 8.1 0 16.24 1.82 24.42 5.44 1.24.5 1.95.75 2.14.75.61 0 1.35-.72 2.2-2.14l1.45.69ZM381.84 739.19v-51.74c0-1.62-.25-2.76-.75-3.41s-1.48-1.18-2.95-1.56v-1.56h15.68v1.56c-1.47.38-2.45.9-2.95 1.56s-.75 1.79-.75 3.41v51.74c0 1.58.25 2.71.75 3.39s1.48 1.21 2.95 1.59v1.56h-15.68v-1.56c1.47-.38 2.45-.92 2.95-1.59s.75-1.8.75-3.39ZM477.38 686.99l-7.96 12.73-1.33-.81c.38-1.35.58-2.26.58-2.72 0-1.01-1.83-2.57-5.5-4.69-5.93-3.36-12.24-5.03-18.91-5.03-8.17 0-14.96 2.35-20.36 7.06-6.01 5.21-9.02 11.94-9.02 20.2s2.76 14.24 8.28 19.21c5.44 4.98 12.62 7.47 21.53 7.47 4.48 0 8.74-.67 12.79-2s7.49-3.18 10.3-5.53v-11.92H453.2c-1.62 0-2.77.25-3.44.75s-1.19 1.48-1.53 2.95h-1.56v-13.72h1.56c.35 1.48.85 2.47 1.53 2.97.67.49 1.82.74 3.44.74h25.53v1.56c-1.48.35-2.47.86-2.97 1.53-.49.67-.74 1.82-.74 3.44v6.71c0 1.62.25 2.77.74 3.44.5.67 1.48 1.19 2.97 1.53v1.33c-10.03 8.6-21.69 12.91-34.98 12.91-10.49 0-19.08-2.81-25.79-8.45-3.59-3.05-6.4-6.71-8.44-11-2.2-4.55-3.3-9.28-3.3-14.18 0-7.26 2.2-13.79 6.6-19.62 3.94-5.17 9.17-8.97 15.68-11.4 4.86-1.82 10.07-2.72 15.62-2.72 4.78 0 9.15.58 13.11 1.74s8.69 3.22 14.21 6.19c.89.46 1.53.69 1.91.69.46 0 1.37-.77 2.72-2.31l1.33.93ZM501.34 691.04v48.15c0 1.58.24 2.71.72 3.39.48.67 1.48 1.21 2.98 1.59v1.56h-14.29v-1.56c1.5-.38 2.5-.92 2.98-1.59s.72-1.8.72-3.39v-51.74c0-1.62-.25-2.76-.75-3.41s-1.48-1.18-2.95-1.56v-1.56h21.06v1.56c-2 .66-3.01 1.66-3.01 3.01 0 1.16.73 2.55 2.2 4.17l38.25 42.82v-45.02c0-1.62-.25-2.76-.75-3.41-.5-.66-1.48-1.18-2.95-1.56v-1.56h14.29v1.56c-1.47.38-2.45.9-2.95 1.56s-.75 1.79-.75 3.41v51.74c0 1.58.24 2.71.72 3.39s1.48 1.21 2.98 1.59v1.56h-16.96v-1.56c2-.5 3.01-1.29 3.01-2.37 0-.81-.93-2.26-2.78-4.34l-41.78-46.41ZM635.37 684.27 629 696.89l-1.39-.69c.2-1.12.29-1.89.29-2.31 0-.93-1.25-2.05-3.76-3.36-5.32-2.86-11.81-4.28-19.44-4.28-6.13 0-11.34 1.14-15.62 3.41-4.28 2.31-6.42 5.53-6.42 9.66 0 1.85.54 3.52 1.62 5.01 1.08 1.48 2.52 2.54 4.34 3.15s3.78 1.02 5.9 1.22c2.12.2 6.68.43 13.66.69 5.82.2 10.24.56 13.22 1.1 2.99.54 5.55 1.41 7.67 2.6 2.28 1.27 4.07 3.12 5.38 5.53s1.97 5.04 1.97 7.9c0 5.98-2.45 10.74-7.35 14.29-5.87 4.2-13.66 6.31-23.38 6.31-4.78 0-9.81-.73-15.08-2.2s-10.16-3.47-14.67-6.02c-.61-.38-1.08-.58-1.39-.58-.58 0-1.45.67-2.6 2.03l-1.33-.87 7.35-12.33 1.39.81c-.12.46-.2.77-.23.93-.2.61-.29 1.12-.29 1.5 0 1.08 1.97 2.66 5.9 4.75 6.63 3.51 13.52 5.27 20.66 5.27 6.52 0 11.94-1.12 16.26-3.36 2.08-1.08 3.74-2.54 4.98-4.37s1.85-3.75 1.85-5.76c0-1.85-.52-3.51-1.56-4.98a8.39 8.39 0 0 0-4.11-3.12c-1.58-.54-3.35-.93-5.3-1.16-1.95-.23-5.62-.44-11.02-.64-6.37-.27-10.92-.59-13.66-.95-2.74-.37-5.32-.99-7.75-1.88-3.09-1.12-5.58-2.93-7.47-5.44-1.89-2.58-2.84-5.64-2.84-9.14 0-6.21 2.81-11.09 8.45-14.64 5.75-3.62 13.06-5.44 21.93-5.44 8.1 0 16.24 1.82 24.42 5.44 1.24.5 1.95.75 2.14.75.61 0 1.35-.72 2.2-2.14l1.45.69Z" class="cls-1"/>
  <path d="M461.69 131.91c0-3.56.83-6.29 2.49-8.19 1.66-1.9 4.63-3.44 8.9-4.63v-5.69h-91.84v5.69c5.93.59 8.9 3.32 8.9 8.19 0 2.49-1.48 6.46-4.45 11.92l-67.14 123.4-66.25-125.54c-1.66-3.08-2.49-5.81-2.49-8.18 0-5.1 2.79-8.36 8.36-9.79v-5.69h-93.62v5.69c4.27 1.19 7.24 2.73 8.9 4.63 1.66 1.9 2.49 4.63 2.49 8.19v205.68c0 3.68-.83 6.46-2.49 8.36-1.66 1.9-4.63 3.44-8.9 4.63v5.69h71.35v-5.69c-4.27-1.19-7.23-2.73-8.9-4.63-1.66-1.9-2.49-4.69-2.49-8.36v-149.1l89.58 167.78 94.57-167.78v149.1c0 .79-.2 1.38-.28 2.1 15.53-7.5 33.25-12.32 53.3-14.25V131.92Z" class="cls-2"/>
</svg>
